/* XPM */
static char *_a73061317b74f8ed434836b83d8fca67pxEhDsKQL6Thx5q[] = {
/* columns rows colors chars-per-pixel */
"50 50 93 2 ",
"   c #2B5903",
".  c #2A5B09",
"X  c #2A5E10",
"o  c #3E5415",
"O  c #296015",
"+  c #28631C",
"@  c #286624",
"#  c #286827",
"$  c #2F6529",
"%  c #276A2D",
"&  c #296A2C",
"*  c #306227",
"=  c #3D6A25",
"-  c #336729",
";  c #336A2B",
":  c #276C32",
">  c #286D33",
",  c #4D4602",
"<  c #494A09",
"1  c #514400",
"2  c #554901",
"3  c #5B4C00",
"4  c #5F5001",
"5  c #5B5708",
"6  c #434F10",
"7  c #625100",
"8  c #655D06",
"9  c #6B5C01",
"0  c #456A1F",
"q  c #4A6A1D",
"w  c #566011",
"e  c #566A17",
"r  c #5B6913",
"t  c #526919",
"y  c #676208",
"u  c #6D6709",
"i  c #67680B",
"p  c #6B680A",
"a  c #766501",
"s  c #7A6701",
"d  c #756904",
"f  c #7C6800",
"g  c #756D08",
"h  c #426A22",
"j  c #826D00",
"k  c #867101",
"l  c #8C7500",
"z  c #877B06",
"x  c #907600",
"c  c #937B00",
"v  c #997F00",
"b  c #7E8715",
"n  c #9C8200",
"m  c #A18600",
"M  c #A68B00",
"N  c #A98E00",
"B  c #AE9200",
"V  c #B29500",
"C  c #B69900",
"Z  c #BB9E03",
"A  c #BB9E08",
"S  c #ADA30B",
"D  c #BEA006",
"F  c #B4A70A",
"G  c #C3A302",
"H  c #CBA700",
"J  c #C4AB05",
"K  c #CBAB01",
"L  c #CBAF03",
"P  c #CFAD00",
"I  c #C8A904",
"U  c #D1AD01",
"Y  c #CAB003",
"T  c #CEB202",
"R  c #D2B301",
"E  c #D5B300",
"W  c #D6B400",
"Q  c #DAB500",
"!  c #DCB900",
"~  c #DEBB00",
"^  c #DFBD01",
"/  c #E2BE00",
"(  c #E5BF00",
")  c #E3C000",
"_  c #E7C200",
"`  c #E9C300",
"'  c #EBC400",
"]  c #EEC800",
"[  c #F0C900",
"{  c #F2CC00",
"}  c #F6CF00",
"|  c #FBD300",
" . c #FFD702",
/* pixels */
"> > > > > > > > > > > > > > > > > > > > > > > > > > > > > : > > > > > > > > : > > > > > > % . @ > > ",
"> > > > > > > > > > > > > > > > > > > > > > > > > > > > > : : > : : > > > > > > > > > > : % O # : : ",
"> > > > > > > > > > > > > > > > > > > > > > > > > : > > > > : > > > > > > > > > > > > > > > > > > > ",
"> > > > > > > > > > > > > > > > > > > > > > > > > : : : > > : > > > > > > > > > > > > > > > > > > > ",
"> > > > > > > > > > > > > > > > > > > > > > > > > : : > > > > > > > > > > > > > > > > > > > > > > > ",
"> > > > > > > > > > > > > > > > > > > > > > : > > > > : > > > > > > > > > > > > > > > > > > > > > > ",
"> > > > > > > > > > > # % > > > > > > > > > > > : > > : > > : > > > > > > > > > > > > > > > > > > > ",
"> > > > > > > > > > > . O > > > > > > > > > > > : & @ : > > : > > > > > > & & > > > > > > > > > > > ",
"> > > > > > > > > > > # % > > > > > > > > : > : > @   & : > : > > > > > > X X > > > > > > > > > > > ",
"> > > > > > > > > > > > > > > > > > > > : : > : > 0 q 0 : > : > > > > > > @ @ > > > > > > > > > > > ",
"> @ X > > > > > > > > > > > > > > > > : & r u d f f f f f d = > > > > > > > > > > > > > > > > > > > ",
"> @ X > > > > > > > > > > > > > > > : h f f d l m Z V V M s f r : > > > > > > > > > > > > > > > > > ",
"> > > > > > > > > > > > > > > > > > h s s / } ~ R W W W R E l f q > > : > > : : > > : : > > : : > > ",
"> > > > > > > > > > > > > > > > > ; f s ` / E W ~ ` | | J W ~ d s h > > > > > > > > > > > > > > > > ",
"> > > > > > > > > > > > > > > > > p s ~ R W ~ ] B n c Z  ./ E Q s s : > > : > > > > > > > > > > > > ",
"> > > > > > > > > > > > > > > > h f n W T [ H j f f f l c ( ~ W H s u > > > > : > > : > > : > > > > ",
"> > > > > > > > > > > > > > : : 2 9 Q L  .H f j M W W H l c ) Q Q N f t > : > > > > > > > > > : : > ",
": > > > > > > > > > > > > > : < 1 9 W ] ' f j K W W W W C l c _ W ~ d s > : > : > > > > > > > > > > ",
"> > > > > > > > > > > # @ > > 1 1 U W  .k f H W W I D W W N l n _ W G s h > > > > > : > > > > > > > ",
"> : : > > > > > > > > O . > * 1 1 G W / f n R E W A A W W W M l C Y W s i > > > > > > > > > > > > : ",
"> > > > : > > > > > > % % : o 1 1 G P C f R W W G Z A P W W W c c T W l a > > > : > > > > > > : : @ ",
"> > > > > > > > > > > > > > < 1 2 ^ T V f E W W D Z A H D P W C l G W M f r > > > > > > : > > : : X ",
"> > > > > > : : > : > > > > 6 1 1 / W B f B W W D A A A I R W E l m E ~ c s e : : : > : : > > > > & ",
"> > : > > : > : : : > > > > & 1 1 c W H f n W W D A A A R W W W n x S W { u f ; : : : > > > > > : > ",
"> > > > > > > > > > : > > : > , 1 1 Q Q j k W W A A D A A G U W Z l G R ~ b s u > > > > > > > > : > ",
"> > > > > > > > > > > > > > > o 1 1 ` W m f B W R E G Z A Z A P W l n J Q W f f & > > > > : > > > > ",
": : > > > > > > > > > > > > > e 1 1 k W _ j j W W W P A G A A R W v c L Q W g f # > > > > : > > : > ",
"> > > > > : > : > > > > > > > = 4 1 1 Q T Z f c W W W E P A L W W N l P Q W g f > > > > > > > > : > ",
"> > > > > > > > > > > > > > > : t 1 1 n W J v f n W W W W W W W W C l Z W R p s > > > > > > > > : > ",
"> > > > > > > > > > > > > > > > > 8 1 3 U W ] l f C W W W W W W W M l H W F s p > > > > > : > > : > ",
": > > : > > > > > > > > > > > > : ; 3 1 a R J ~ j k c W W W W W G l n W W z f = > > > > > : > > : > ",
"> > > > : : : : > > > > > > > > : : y 1 1 n W F H n l c m m c c l c E W H s d > > > > > > : > > : > ",
"> > > > > > > > > : : : : > > > : > ; 9 1 3 H R ~ E V c c c c n V ~ W W k s ; > > > > > > : > > : > ",
"> > > > > . + > > > > > > > : : : > > ; 4 1 1 N R [ [ ' / J / ] Q W W M f e : > > : > > > > > > > > ",
": > > : > O @ > > > > > > > > > > > > > - 1 1 1 7 Z W L Q Q W W W W K j l > : > > : > > > : > > : > ",
"> > > > : > > : > > > > > > > % . @ > > > t 3 1 1 1 3 l n P W W R P f 7 = > : > > : > > > : > > > : ",
"> > > > > > > > > : > > : > : % O # > > : > q w 3 1 1 1 1 1 1 2 9 3 1 1 $ > : > > % O % > : > > > : ",
"> > > > > > > > > > > > > > > : : > > : > > > : & e 5 2 1 1 1 1 1 1 < * > > : > > # . # > : > > > : ",
"> > > : > > > > > > > > > > : > > > > : > > > : > > > > > > > & > > > > > > : > > : > > > > > > > : ",
"> > > > > > > > > > > > > > : > > : > : > > > : > > > > > > > : > > > > > > : > > : > > > > > > > : ",
"> > > > > > > > > > > > > : : > > : > > > > > > > > > > > > : > > > > > > > : > > : > > > : > > > : ",
"> > > > > > > > > > > > > : : > > : > > > > > # X # : > > > : > > > > > > > : > > : > > > : > > > > ",
"> : : : > > > > > > > > > : : > > > : : > > > # X # > > > > > > > > > > > > : > > : > > > : > > > : ",
"# X # > : : : : > > > > > : > > > > : : > > > : > > > > > > : > > > > > > > : > > : > > > : > > > : ",
"# X # > > > > > : > : : > : > > > > : : > > : > > > > > > > : > > > > > > > : > > : > > > > > > > : ",
"> > > > > > > > > > > > > : > > > > > : > > : > > > : > > > : > > : > > > > : > > : > > > > > > > : ",
"> : > > > > > > > > > > : : > > > > : > > > : > > > : > > : > > > > > > > : > > > @ + > > : > > > : ",
"> > > > > : > > > > > : > : > : > > > > > > : > > > : > > > > > > > > > > : > > > + X > > : > > > : ",
"> > > > > > > : > : > : : > : > > > > > > > : > > > : > > : > > > > > > > : > > > : > > > : > > > > ",
": : : > > > > > > > > > > > : > > > : > > > > > > : > > > : > > > > > > > > > > > : > > > : > > > > "
};
