/* XPM */
static char *e247643da73c4aa5e827a5a11b051e9b4iZbV63FrS73kXbO[] = {
/* columns rows colors chars-per-pixel */
"50 50 117 2 ",
"   c #2A5B09",
".  c #2A5E10",
"X  c #296015",
"o  c #28631C",
"O  c #375A36",
"+  c #286623",
"@  c #276B2D",
"#  c #28692A",
"$  c #276C32",
"%  c #286D33",
"&  c #2F663B",
"*  c #32643D",
"=  c #336B3E",
"-  c #40623D",
";  c #573E6A",
":  c #593D6B",
">  c #5E3772",
",  c #5D3970",
"<  c #613460",
"1  c #692D7D",
"2  c #623477",
"3  c #65307A",
"4  c #365F43",
"5  c #3B594B",
"6  c #4F475F",
"7  c #4B4B5B",
"8  c #415352",
"9  c #456051",
"0  c #524463",
"q  c #5E446E",
"w  c #646374",
"e  c #781F8F",
"r  c #7C1C92",
"t  c #6C2A82",
"y  c #712586",
"u  c #75228B",
"i  c #7A2390",
"p  c #7C3A91",
"a  c #745587",
"s  c #7D5192",
"d  c #821896",
"f  c #85139E",
"g  c #83189C",
"h  c #802998",
"j  c #8C0DA5",
"k  c #8F09A9",
"l  c #9406AD",
"z  c #9109AB",
"x  c #8715A0",
"c  c #8A12A4",
"v  c #8D1EA4",
"b  c #9015AA",
"n  c #9602B2",
"m  c #9A01B5",
"M  c #970AB2",
"N  c #9B0CB5",
"B  c #9E05B9",
"V  c #9F0DB9",
"C  c #9B16B4",
"Z  c #9C1AB5",
"A  c #9F11BB",
"S  c #A107BA",
"D  c #A20ABD",
"F  c #A415BE",
"G  c #A719BF",
"H  c #8E25A6",
"J  c #8B2CA2",
"K  c #902DA6",
"L  c #8830A0",
"P  c #9921B0",
"I  c #87559A",
"U  c #8B41A0",
"Y  c #A60EC1",
"T  c #A712C2",
"R  c #AB14C6",
"E  c #AB1DC4",
"W  c #AE17C8",
"Q  c #AE18CB",
"!  c #B11ACC",
"~  c #B51FD1",
"^  c #AA24C4",
"/  c #AA30C4",
"(  c #B337CC",
")  c #B721D2",
"_  c #BB25D5",
"`  c #B92ED3",
"'  c #BE2AD9",
"]  c #C22DDC",
"[  c #C532DF",
"{  c #C632E1",
"}  c #CA35E4",
"|  c #CE3CE9",
" . c #D23EED",
".. c #C643E0",
"X. c #D342EE",
"o. c #D649EF",
"O. c #D257E9",
"+. c #D744F2",
"@. c #DB46F4",
"#. c #D749F1",
"$. c #DC49F7",
"%. c #DE4AF9",
"&. c #DE4FF9",
"*. c #D755F0",
"=. c #DE56F5",
"-. c #DF55F8",
";. c #E04BFA",
":. c #E04DFB",
">. c #E14FFC",
",. c #E54FFF",
"<. c #E054F7",
"1. c #E050FB",
"2. c #E256FB",
"3. c #E353FC",
"4. c #E553FF",
"5. c #E354FC",
"6. c #E555FD",
/* pixels */
"% % % % % % % % % % % % % % % % % % % % % % % % % % % % % $ % % % % % % % % $ % % % % % % @   + % % ",
"% % % % % % % % % % % % % % % % % % % % % % % % % % % % % $ $ % $ $ % % % % % % % % % % $ @ X # $ $ ",
"% % % % % % % % % % % % % % % % % % % % % % % % % $ % % % % $ % % % % % % % % % % % % % % % % % % % ",
"% % % % % % % % % % % % % % % % % % % % % % % % % $ $ $ % % $ % % % % % % % % % % % % % % % % % % % ",
"% % % % % % % % % % % % % % % % % % % % % % % % % & e f 3 % % % % % % % % q N B M 3 % % % % % % % % ",
"% % % % % % % % % % % % % % % % % % % % % % $ % & m m m m m r % % % % % a B B Y D m ^ % % % % % % % ",
"% % % % % % % % % % % # @ % % % % % % % % % % % i m _ { _ m m n 5 % % U m B | 2.&.D m s % % % % % % ",
"% % % % % % % % % % %   X % % % % % % % % % % % A m ..n z #.D m n 5 p m B $._ B T X.m L % % % % % % ",
"% % % % % % % % % % % # @ % % % % % % % % $ % $ D m o.m m m $.! m m ~ ~ $.o.m B m  .B x % % % % % % ",
"% % % % % % % % % % % % % % % % % % % % $ $ % = B m  .m m m m 4.{ ] +.6.4.+.B m m ! B f % % % % % % ",
"% + < 0 % % % % % % % % % % % % % % % $ $ % % = B m 1.B B ] } %.4.4.6.4.4.6.{ B m _ D z % % % % % % ",
"% - m b % % % % % % % % % % % % % % $ % $ % % $ B D 4.Q @.4.,.4.4.4.4.4.4.6.6.X.m { B k % % % % % % ",
"% % m C % % 4 f l y % % % % % % % % % % $ % $ & B T 6.@.4.4.4.4.4.4.4.4.6.4.6.4.3.6.B f % % $ $ % % ",
"% % n r % & z m v n 8 % % % % % % % % % $ % $ h m | 6.6.6.4.4.,.4.4.4.6.6.6.6.6.6.R m 6 % % % % % % ",
"% % j n : u n w I m 0 % % % % % % % % % $ % $ V D 5.2.6.6.6._ ! 6.6.6.6.} } 6.6.6.B D % % % % % % % ",
"% % % c m n n k n z % % % % % % % % % % $ > k m W 6.3.6.6.6.B B 4.6.4.6.m m 6.6.6.Y B % % $ % % % % ",
"% % % % y D B j 1 & % % % % $ $ % % t z m m m B Q 6.6.4.6.4.m m 4.6.6.6.m m 6.6.2.) m % % % % $ $ % ",
"$ % % % % E Z % % % % % % % 5 3 k m m m m Y +.S W 6.6.6.6.6.B D 6.6.6.4.B B 6.6.6.' m ; % % % % % % ",
"% % % % % E E % % % % # O j m m m m ! 4.6.6.6.D Y 6.6.2.6.5.4.>.>.@.3.%.6.6.6.*.6.[ m ; % % % % % % ",
"% $ $ % % P E K % % % X z m B m ! 6.6.6.6.6.4.T m $.6.6.6.6.6.4.%.m  .D 6.4.5.6.6.] m ; % % % % % $ ",
"% % % % $ % E E ) ; & r m D m ) 6.6.6.6.4.6.6. .m B } 6.6.6.6.4.4.;.:.+.6.6.4.6.4.R m & % % % $ $ + ",
"% % % % % % 4 D m m c m B m ) 6.6.6.6.6.6.6.5.6.X.B m W +.6.6.6.4.4.6.6.6.6.6.=.] m Z % $ % % $ $ . ",
"% % % % % % $ $ E m m m m ! 6.5.6.4.6.4.6.6.6.6.3.6.R m m R +.6.5.>.6.6.6.6.$.Y m D & $ $ % % % % @ ",
"% % $ % % $ % $ $ 9 N m m 6.6.1.6.6.4.6.6.6.4.6.6.6.6.$.R m m B S B m m B B m m m r $ % % % % % $ % ",
"% % % % % % % % % % 2 m m 4.6.6.6.6.6.6.6.6.6.6.6.6.6.6.6.+.' Y S D m m B Y ! +.T m 4 % % % % % $ % ",
"% % % % % % % % % % 0 m m 6.6.4.6.6.6.6.4.6.6.<.6.6.4.6.6.4.6.6.6.4.4.4.6.6.6.6.$.n t % % $ % % % % ",
"$ $ % % % % % % % % 0 m m 6.6.6.6.=.6.4.6.6.4.6.6.6.4.6.6.6.6.4.6.6.4.4.4.6.4.6.6.n r % % $ % % $ % ",
"% % % % % $ % $ % % 7 m m 6.1.6.6.5.6.6.6.4.6.6.6.6.4.6.4.4.6.6.6.6.4.4.4.4.6.6.6.l r % % % % % $ % ",
"% % % % % % % % % % & n B 6.6.6.6.6.6.6.4.6.6.6.1.-.3.6.6.6.6.6.6.6.6.4.4.4.6.4.6.m r % % % % % $ % ",
"% % % % % % % % % % * m B 6.6.6.6.6.4.6.4.4.1.6.6.6.6.6.6.6.6.6.4.4.6.6.3.6.4.6./ m , % % $ % % $ % ",
"$ % % $ % % % % % % % m n 6.4.6.6.4.6.+.+.6.6.6.6.6.4.4.6.4.4.6.6.6.6.6.6.4.6.6.l m 5 % % $ % % $ % ",
"% % % % $ $ $ $ % % % m n O.6.6.4.6.6.Y Y 6.4.4.6.4.6.6.6.6.m _ 6.4.3.) +.4.4.( m n % % % $ % % $ % ",
"% % % % % % % % % $ $ u m J 4.4.6.4.4.B B 6.6.4.6.4.6.6.4.4.m ! 4.4.>.m ! 4.) m n n % % % $ % % $ % ",
"% % % % %   o % % % % t m F 4.4.4.4.6.D D 6.4.4.4.6.6.4.6.$.m ' 4.6.4.D D Q m Y ` m & % % % % % % % ",
"$ % % $ % X + % % % % % l G 4.4.4.4.4.D B 4.4.4.4.4.4.4.4.$.m ] 4.4.6.Y m m ! 4.' m 4 % % $ % % $ % ",
"% % % % $ % % $ % % % % j C 4.4.4.4.%.B B } 4.4.4.6.6.6.6.6.m ] 4.4.,.m m ' 6.4._ m % % % $ % % % $ ",
"% % % % % % % % % $ % % k M :.4.4.4. .m m m m m m m m m B Y m m 4.4.>.D m ~ 4.4.D l X @ % $ % % % $ ",
"% % % % % % % % % % % % z F 6.6.4.6.4.Y B [ R n n m m n m m m B 4.4.4.] m ! ] g n y   # % $ % % % $ ",
"% % % $ % % % % % % % % k T 6.6.6.6.2.B S X.Z k m j % % % % m H 6.4.4._ m m m m f $ % % % % % % % $ ",
"% % % % % % % % % % % % j B 6.4.4.6.D m J m n k t % % % % % n d *.6.:.z n 2 0 % % $ % % % % % % % $ ",
"% % % % % % % % % % % % 1 m M _ { ! m 3 % 7 % % % % % % % % d n l B n n 1 % $ % % $ % % % $ % % % $ ",
"% % % % % % % % % % % % % t l m m m e % % % % # . # $ % % % 4 r k j u 5 % % $ % % $ % % % $ % % % % ",
"% $ $ $ % % % % % % % % % $ $ 0 ; 8 $ $ % % % # . # % % % % % % % % % % % % $ % % $ % % % $ % % % $ ",
"# . # % $ $ $ $ % % % % % $ % % % % $ $ % % % $ % % % % % % $ % % % % % % % $ % % $ % % % $ % % % $ ",
"# . # % % % % % $ % $ $ % $ % % % % $ $ % % $ % % % % % % % $ % % % % % % % $ % % $ % % % % % % % $ ",
"% % % % % % % % % % % % % $ % % % % % $ % % $ % % % $ % % % $ % % $ % % % % $ % % $ % % % % % % % $ ",
"% $ % % % % % % % % % % $ $ % % % % $ % % % $ % % % $ % % $ % % % % % % % $ % % % + o % % $ % % % $ ",
"% % % % % $ % % % % % $ % $ % $ % % % % % % $ % % % $ % % % % % % % % % % $ % % % o . % % $ % % % $ ",
"% % % % % % % $ % $ % $ $ % $ % % % % % % % $ % % % $ % % $ % % % % % % % $ % % % $ % % % $ % % % % ",
"$ $ $ % % % % % % % % % % % $ % % % $ % % % % % % $ % % % $ % % % % % % % % % % % $ % % % $ % % % % "
};
