/* XPM */
static char *_d41bc843bf5417ad079fa078cfa9c8bGlvsQMP9i5tdsZWQ[] = {
/* columns rows colors chars-per-pixel */
"50 50 21 1 ",
"  c #2B5903",
". c #2A5B09",
"X c #2A5C0A",
"o c #295D0F",
"O c #2A5E11",
"+ c #296015",
"@ c #29631B",
"# c #29641F",
"$ c #276724",
"% c #286522",
"& c #286724",
"* c #276827",
"= c #286827",
"- c #276829",
"; c #276A2C",
": c #276C2F",
"> c #286929",
", c #286A2D",
"< c #266B30",
"1 c #276D32",
"2 c #286D33",
/* pixels */
"222222222222222222222222222221222222221222222;.&22",
"222222222222222222222222222221121122222222221:+>11",
"22222222222222222222222221222212222222222222222222",
"22222222222222222222222221112212222222222222222222",
"22222222222222222222222221122222222222222222222222",
"22222222222222222222221222212222222222222222222222",
"22222222222>;2222222222212212212222222222222222222",
"22222222222.+222222222221,%1221222222,,22222222222",
"22222222222>;222222221212% ,121222222OO22222222222",
"2222222222222222222211212<,1121222222&&22222222222",
"2%O22222222222222221122122121212222222222222222222",
"2%O22222222222222212122112111212122222222222222222",
"22222222222222222222121222222111222122112211221122",
"22222222222222222222121122222111222222222222222222",
"22222222222222222222<21222221211221221222222222222",
"22222222222222222222111222222211122222212212212222",
"22222222222222112222121122222211122221222222222112",
"12222222222222122222112211222211121221212222222222",
"22222222222>&2222222<22222112211122222222212222222",
"21122222222+.2222222212222221121212222222222222221",
"22221222222:;121212<1122211222$o,2222222122222211&",
"222222222222222222211111121122$o;2222222222212211O",
"222222112122222222112222221122;112221111112112222,",
"22122121112222222212111211112211111112111112222212",
"22222222221221211212212221222112121212222222222212",
"22222222222222222212212221222222222212;%,222212222",
"112222222222222222222122*;221222122212$ =222212212",
"222221212222222222222122 @222222222212<,2222222212",
"222222222222222121222222*;221222122212122222222212",
"22222222222222222<22222212221222122212122222212212",
"12212222222222221122122212221222122122122222212212",
"22221111222222221122122222221222122122122222212212",
"22222222211112221222122222221222222222122222212212",
"22222X#222222211<222122222221221222222122122222222",
"12212+&2222222222222222212212221222222122122212212",
"222212212222222;.&22222122212221222222122122212221",
"222222222122121;+>22122122212221222222122;+;212221",
"22222222222222211221222122222222221222122-.>212221",
"22212222222222122221222122222221222222122122222221",
"22222222222222122121222122222221222222122122222221",
"22222222222221122122222222222212222222122122212221",
"22222222222221122122222>O>122212222222122122212222",
"21112222222221122211222>O>222222222222122122212221",
">O>21111222221222211222122222212222222122122212221",
">O>2222212112122221<221222222212222222122122222221",
"22222222222221222221221222122212212222122122222221",
"21222222222211222212221222122122222221222%@2212221",
"22222122222121212222221222122222222221222@O2212221",
"22222221212112122222221222122122222221222122212222",
"11122222222222122212222221222122222222222122212222"
};
