/* XPM */
static char *e73e1d90a59245039306fc1b697b9503hNIdhd8FNJ0KYcNl[] = {
/* columns rows colors chars-per-pixel */
"50 50 2 1 ",
"  c green",
". c #998601",
/* pixels */
"                                                  ",
"                                                  ",
"                                          .....   ",
"             ..................................   ",
"          .....................................   ",
"    ...........................................   ",
"     ...........................................  ",
"     ...........................................  ",
"    ............................................  ",
"    ............................................  ",
"   .............................................  ",
"   .............................................  ",
"  ..............................................  ",
"  ..............................................  ",
"  ..............................................  ",
"  ..............................................  ",
"  ..............................................  ",
"  ..............................................  ",
"  ..............................................  ",
"  ..............................................  ",
"   .............................................  ",
"   .............................................  ",
"    ............................................  ",
"    ............................................  ",
"    ............................................  ",
"     ...........................................  ",
"     ...........................................  ",
"     ...........................................  ",
"      ..........................................  ",
"      ..........................................  ",
"      ..........................................  ",
"      ..........................................  ",
"      ..........................................  ",
"     ..........................................   ",
"     ..........................................   ",
"     ..........................................   ",
"     ..........................................   ",
"    ..........................................    ",
"    ..........................................    ",
"    ..........................................    ",
"    ..........................................    ",
"   ...........................................    ",
"   ...........................................    ",
"   ............................................   ",
"   ............................................   ",
"  .............................................   ",
"  .............................................   ",
"    ........................             ......   ",
"                                                  ",
"                                                  "
};
