/* XPM */
static char *a2daaef8137a4287f1fd56ed5b6e95bfkscoe9qga7dYWsOz[] = {
/* columns rows colors chars-per-pixel */
"50 50 51 1 ",
"  c #050C00",
". c #061203",
"X c #091606",
"o c #091907",
"O c #0A1C09",
"+ c #0D230C",
"@ c #0F2A0F",
"# c #13310E",
"$ c #1A3C09",
"% c #0E2B11",
"& c #102E12",
"* c #123315",
"= c #153C16",
"- c #133318",
"; c #153C19",
": c #17411C",
"> c #18451E",
", c #1A481E",
"< c #214402",
"1 c #2B5903",
"2 c #2A5B0A",
"3 c #2A5E10",
"4 c #296015",
"5 c #29631C",
"6 c #194720",
"7 c #1B4A22",
"8 c #1B4E23",
"9 c #1C4E23",
"0 c #1C4F24",
"q c #1F5221",
"w c #1E5327",
"e c #1F5526",
"r c #1E5828",
"t c #205929",
"y c #225F2B",
"u c #235F2C",
"i c #256724",
"p c #286522",
"a c #286724",
"s c #286827",
"d c #23602C",
"f c #25662F",
"g c #276829",
"h c #276A2C",
"j c #276C2F",
"k c #286929",
"l c #286B2E",
"z c #256731",
"x c #266830",
"c c #276D32",
"v c #286D33",
/* pixels */
"vvvvvvvvvvvvvvvvvvvvvvvvvvvvvcvvvvvvvvcvvvvvvh2avv",
"vvvvvvvvvvvvvvvvvvvvvvvvvvvvvccvccvvvvvvvvvvcj4kcc",
"vvvvvvvvvvvvvvvvvvvvvvvvvcvvvvcvvvvvvvvvvvvvvvvvvv",
"vvvvvvvvvvvvvvvvvvvvvvvvvcccvvcvvvvvvvvvvvvvvvvvvv",
"vvvvvvvvvvvvvvvvvvvvvvvvvccvvvvvvvvvvvvvvvvvvvvvvv",
"vvvvvvvvvvvvvvvvvvvvvvcvvvvcvvvvvvvvvvvvvvvvvvvvvv",
"vvvvvvvvvvvkhvvvvvvvvvvv8fvcvvcvvvvvvvvvvvvvvvvvvv",
"vvvvvvvvvvv24vvvvvvvvv*  qpcvvcvvvvvvllvvvvvvvvvvv",
"vvvvvvvvvvvkhvvvvvvvv@ .*#<lcvcvvvvvv33vvvvvvvvvvv",
"vvvvvvvvvvvvvvvvvvvv: oc9   O;wvvvvvvaavvvvvvvvvvv",
"vp3vvvvvvvvvvvvvvvvco vcvw*o   .;vvvvvvvvvvvvvvvvv",
"vp3vvvvvvvvvvvvvvvcv ovccvccc7&. Ouvvvvvvvvvvvvvvv",
"vvvvvvvvvvvvvvvvvvvv +cx*ev*>ccc+  ;vvccvvccvvccvv",
"vvvvvvvvvvvvvvvvvvvv OczO9v&>cccv>. >vvvvvvvvvvvvv",
"vvvvvvvvvvvvvvvvvvvv..cvvvvvcvccvvc +cvvvvvvvvvvvv",
"vvvvvvvvvvvvvvvvvvvv* *vvvvO    ;vv +vvcvvcvvcvvvv",
"vvvvvvvvvvvvvvccvvvvcX 7vvv%+O++ev* ;cvvvvvvvvvccv",
"cvvvvvvvvvvvvvcvvvvvcu  ;cvvvvccc> .vcvcvvvvvvvvvv",
"vvvvvvvvvvvkavvvvvvvxvt.  +%:;:;+ .uvvvvvvcvvvvvvv",
"vccvvvvvvvv42vvvvvv7*+X.*X       ouvvvvvvvvvvvvvvc",
"vvvvcvvvvvvjhcvc0o    X+d.+ -:=$fvvvvvvvcvvvvvvcca",
"vvvvvvvvvvvvvvv7  o=rccc> % +vi2hvvvvvvvvvvvcvvcc3",
"vvvvvvccvcvvvvv. uccvvvv+ c+ whccvvvccccccvccvvvvl",
"vvcvvcvcccvvvv> ;vcvcccv..cy .cccccccvcccccvvvvvcv",
"vvvvvvvvvvcvvc9 9vcvvcvv Ovv-.%vcvcvcvvvvvvvvvvvcv",
"vvvvvvvvvvvvvvfefvcvvcv: :vvv>+vvvvvcvhplvvvvcvvvv",
"ccvvvvvvvvvvvvvvvvvvvcv: ,vvcvvvcvvvcvi1svvvvcvvcv",
"vvvvvcvcvvvvvvvvvvvvvcv+ 5vvvvvvvvvvcvxlvvvvvvvvcv",
"vvvvvvvvvvvvvvvcvcvvvvv+ hvvcvvvcvvvcvcvvvvvvvvvcv",
"vvvvvvvvvvvvvvvvvxvvvvvO.vvvcvvvcvvvcvcvvvvvvcvvcv",
"cvvcvvvvvvvvvvvvccvvcvv..vvvcvvvcvvcvvcvvvvvvcvvcv",
"vvvvccccvvvvvvvvccvvcvvXXvvvcvvvcvvcvvcvvvvvvcvvcv",
"vvvvvvvvvccccvvvcvvvcvv..vvvcvvvvvvvvvcvvvvvvcvvcv",
"vvvvv25vvvvvvvccxvvvcvv.Xvvvcvvcvvvvvvcvvcvvvvvvvv",
"cvvcv4avvvvvvvvvvvvvvvv.Xvvcvvvcvvvvvvcvvcvvvcvvcv",
"vvvvcvvcvvvvvvvh2avvvvvXovvcvvvcvvvvvvcvvcvvvcvvvc",
"vvvvvvvvvcvvcvch4kvvcv>o6vvcvvvcvvvvvvcvvh4hvcvvvc",
"vvvvvvvvvvvvvvvccvvcuO  ovvvvvvvvvcvvvcvvg2kvcvvvc",
"vvvcvvvvvvvvvvcvvvv;  ++ evvvvvcvvvvvvcvvcvvvvvvvc",
"vvvvvvvvvvvvvvcvvto .evu +vvvvvcvvvvvvcvvcvvvvvvvc",
"vvvvvvvvvvvvvccv>  &vvvvo uvvvcvvvvvvvcvvcvvvcvvvc",
"vvvvvvvvvvvvvcc& .wvvvvk$ +vvvcvvvvvvvcvvcvvvcvvvv",
"vcccvvvvvvvvvc+ ovccvvvk3o vvvvvvvvvvvcvvcvvvcvvvc",
"k3kvccccvvvvv* Ovvccvvvcv% >vvcvvvvvvvcvvcvvvcvvvc",
"k3kvvvvvcvccw Xvvvcxvvcvvt @vvcvvvvvvvcvvcvvvvvvvc",
"vvvvvvvvvvvv. uvvvvcvvcvvt ;vvcvvcvvvvcvvcvvvvvvvc",
"vcvvvvvvvvvt.;vvvvcvvvcvvvfvvcvvvvvvvcvvvp5vvcvvvc",
"vvvvvcvvvvvcfcvcvvvvvvcvvvcvvvvvvvvvvcvvv53vvcvvvc",
"vvvvvvvcvcvccvcvvvvvvvcvvvcvvcvvvvvvvcvvvcvvvcvvvv",
"cccvvvvvvvvvvvcvvvcvvvvvvcvvvcvvvvvvvvvvvcvvvcvvvv"
};
